<?xml version="1.0" encoding="UTF-8"?>
<svg viewBox="0 0 644.41083 699.92218" xmlns="http://www.w3.org/2000/svg">
 <path transform="matrix(.99557 0 0 .99557 244.69 -244.07)" d="m400 568.79c0 177.91-144.23 322.14-322.14 322.14s-322.14-144.23-322.14-322.14 144.23-322.14 322.14-322.14 322.14 144.23 322.14 322.14z" fill="#fff" stroke="#000" stroke-width="3.0134"/>
 <path transform="matrix(.9023 0 0 .9023 251.95 -191.02)" d="m400 568.79c0 177.91-144.23 322.14-322.14 322.14s-322.14-144.23-322.14-322.14 144.23-322.14 322.14-322.14 322.14 144.23 322.14 322.14z" fill="#00f"/>
 <g transform="matrix(1.3818 0 0 1.3818 637.56 -151.84)">
  <path d="m-393.67 295.52h4.4238l-9.8466 39.386s-8.705 1.5698-8.705 8.1342v35.676c0 5.7082 5.2801 9.6326 9.6326 9.6326l349.53 0.0113v-105.25c0-4.7426-2.7245-8.2744-8.9808-8.2744s-336.05 0.2835-336.05 0.2835c0.0256 0.9082 0 20.397 0 20.397z" fill="#fff"/>
  <path d="m-351.01 293.81h63.092a3.1312 3.1312 0 0 1 3.1312 3.1312v34.837a3.1312 3.1312 0 0 1 -3.1312 3.1312h-63.092a3.1312 3.1312 0 0 1 -3.1312 -3.1312v-34.837a3.1312 3.1312 0 0 1 3.1312 -3.1312" fill="#00f"/>
  <path d="m-274.52 293.81h63.092a3.1312 3.1312 0 0 1 3.1312 3.1312v34.837a3.1312 3.1312 0 0 1 -3.1312 3.1312h-63.092a3.1312 3.1312 0 0 1 -3.1312 -3.1312v-34.837a3.1312 3.1312 0 0 1 3.1312 -3.1312" fill="#00f"/>
  <path d="m-199.17 293.81h63.092a3.1312 3.1312 0 0 1 3.1312 3.1312v34.837a3.1312 3.1312 0 0 1 -3.1312 3.1312h-63.092a3.1312 3.1312 0 0 1 -3.1312 -3.1312v-34.837a3.1312 3.1312 0 0 1 3.1312 -3.1312" fill="#00f"/>
  <path d="m-122.68 293.81h63.092a3.1312 3.1312 0 0 1 3.1312 3.1312v34.837a3.1312 3.1312 0 0 1 -3.1312 3.1312h-63.092a3.1312 3.1312 0 0 1 -3.1312 -3.1312v-34.837a3.1312 3.1312 0 0 1 3.1312 -3.1312" fill="#00f"/>
  <path transform="matrix(.79915 0 0 .79915 197.98 -10.755)" d="m-618.57 490.22c0 18.146-14.711 32.857-32.857 32.857s-32.857-14.711-32.857-32.857 14.711-32.857 32.857-32.857 32.857 14.711 32.857 32.857z" fill="#fff" stroke="#00f" stroke-width="10"/>
  <path transform="matrix(.79915 0 0 .79915 382.36 -10.755)" d="m-618.57 490.22c0 18.146-14.711 32.857-32.857 32.857s-32.857-14.711-32.857-32.857 14.711-32.857 32.857-32.857 32.857 14.711 32.857 32.857z" fill="#fff" stroke="#00f" stroke-width="10"/>
  <path d="m-383.68 294.24-10.346 39.244h30.182c2.9968 0 2.8954-0.0406 2.8954-5.015v-31.232c0-2.8541-1.5697-3.0175-3.4455-3.0175l-19.286 0.0206z" fill="#00f"/>
 </g>
</svg>
